<svg width="32" height="32" viewBox="0 0 32 32" fill="none" xmlns="http://www.w3.org/2000/svg">
<path d="M32 16.1833C32 7.77037 24.8375 0.951904 16 0.951904C7.16253 0.951904 0 7.77037 0 16.1833C0 23.7872 5.85 30.0879 13.5 31.2303V20.5861H9.43747V16.1833H13.5V12.8276C13.5 9.01084 15.8875 6.90167 19.5437 6.90167C21.2937 6.90167 23.125 7.19916 23.125 7.19916V10.9475H21.1063C19.1187 10.9475 18.5 12.1226 18.5 13.3274V16.1833H22.9375L22.2281 20.5861H18.5V31.2303C26.15 30.0879 32 23.7872 32 16.1833Z" fill="black"/>
<path d="M22.2281 20.5861L22.9374 16.1833H18.5V13.3274C18.5 12.1226 19.1187 10.9475 21.1062 10.9475H23.125V7.19916C23.125 7.19916 21.2937 6.90167 19.5437 6.90167C15.8875 6.90167 13.5 9.01084 13.5 12.8276V16.1833H9.43744V20.5861H13.5V31.2303C14.3156 31.3523 15.15 31.4147 16 31.4147C16.85 31.4147 17.6844 31.3523 18.5 31.2303V20.5861H22.2281Z" fill="white"/>
</svg>
