<svg width="32" height="31" viewBox="0 0 32 31" fill="none" xmlns="http://www.w3.org/2000/svg">
<path fill-rule="evenodd" clip-rule="evenodd" d="M15.9985 0C7.16339 0 0 6.81928 0 15.2319C0 21.9614 4.58406 27.6698 10.942 29.6849C11.7425 29.8242 12.0343 29.3538 12.0343 28.9499C12.0343 28.589 12.0205 27.6306 12.0126 26.3598C7.56217 27.2799 6.62316 24.3177 6.62316 24.3177C5.89533 22.5589 4.84631 22.0904 4.84631 22.0904C3.3936 21.1451 4.95632 21.1638 4.95632 21.1638C6.56226 21.2723 7.40698 22.7337 7.40698 22.7337C8.83416 25.0611 11.1522 24.3888 12.0637 23.9998C12.2091 23.0152 12.6216 22.3438 13.0793 21.9633C9.52663 21.579 5.79121 20.2718 5.79121 14.4352C5.79121 12.7727 6.41493 11.4132 7.43841 10.3481C7.2734 9.9629 6.72433 8.41446 7.59459 6.31716C7.59459 6.31716 8.93827 5.90761 11.995 7.87868C13.2709 7.54113 14.6401 7.37189 16.0005 7.36628C17.3589 7.37189 18.7281 7.54113 20.006 7.87868C23.0607 5.90761 24.4015 6.31716 24.4015 6.31716C25.2747 8.41446 24.7256 9.9629 24.5606 10.3481C25.5861 11.4132 26.2058 12.7727 26.2058 14.4352C26.2058 20.2867 22.4645 21.5743 18.9 21.9511C19.4746 22.4214 19.9864 23.3509 19.9864 24.7721C19.9864 26.8077 19.9667 28.4506 19.9667 28.9499C19.9667 29.3576 20.2545 29.8317 21.0668 29.683C27.4199 27.6642 32 21.9595 32 15.2319C32 6.81928 24.8356 0 15.9985 0Z" fill="#1C1C1C"/>
</svg>
