<svg width="32" height="32" viewBox="0 0 32 32" fill="none" xmlns="http://www.w3.org/2000/svg">
<g clip-path="url(#clip0_3463_166)">
<path d="M0 16.1833C0 7.77124 7.16344 0.951904 16 0.951904C24.8366 0.951904 32 7.77124 32 16.1833C32 24.5954 24.8366 31.4147 16 31.4147C7.16344 31.4147 0 24.5954 0 16.1833Z" fill="black"/>
<path fill-rule="evenodd" clip-rule="evenodd" d="M11.5459 10.359C11.5459 11.3548 10.7584 12.1517 9.49413 12.1517H9.47096C8.25365 12.1517 7.46667 11.3548 7.46667 10.359C7.46667 9.34215 8.27761 8.56763 9.51803 8.56763C10.7584 8.56763 11.5223 9.34215 11.5459 10.359ZM11.307 13.5672V23.9384H7.68109V13.5672H11.307ZM24.3835 23.9384L24.3836 17.9919C24.3836 14.8063 22.5948 13.3237 20.2088 13.3237C18.2836 13.3237 17.4217 14.3303 16.9405 15.0365V13.5675H13.3141C13.3619 14.5407 13.3141 23.9387 13.3141 23.9387H16.9405V18.1466C16.9405 17.8366 16.964 17.5274 17.0599 17.3055C17.3219 16.6862 17.9186 16.0451 18.9203 16.0451C20.233 16.0451 20.7576 16.9961 20.7576 18.3898V23.9384H24.3835Z" fill="white"/>
</g>
<defs>
<clipPath id="clip0_3463_166">
<rect width="32" height="30.4628" fill="white" transform="translate(0 0.951904)"/>
</clipPath>
</defs>
</svg>
