<svg width="80" height="80" viewBox="0 0 80 80" fill="none" xmlns="http://www.w3.org/2000/svg">
<path d="M36.3905 0.853487C38.5764 -0.28193 41.4236 -0.287059 43.6076 0.853487C54.5954 6.48755 65.5865 12.1128 76.5724 17.7503C78.6387 18.8065 80.0208 20.8932 79.9998 23.0538V56.9505C80.0152 59.2005 78.4964 61.3372 76.3165 62.3695C65.3649 67.9725 54.4189 73.5823 43.4692 79.1853C41.238 80.343 38.3337 80.2538 36.1723 79.0013C32.889 77.2741 29.6001 75.5554 26.3165 73.8299C25.6455 73.4669 24.8891 73.178 24.4153 72.5876C24.8342 72.0754 25.583 72.0115 26.1915 71.7879C27.562 71.3924 28.8208 70.7576 30.0798 70.1416C30.3982 69.9438 30.7869 70.0196 31.0921 70.1966C33.8997 71.6574 36.6825 73.1606 39.4995 74.6075C40.1005 74.9223 40.709 74.5043 41.2227 74.2445C51.9696 68.7326 62.7296 63.2416 73.4746 57.7281C73.8728 57.5543 74.0929 57.1708 74.0605 56.775C74.0681 45.5932 74.0624 34.4094 74.0643 23.2276C74.1098 22.7786 73.8235 22.3657 73.3761 22.182C62.4624 16.6046 51.5545 11.0187 40.6427 5.43989C40.4537 5.32195 40.2297 5.25866 40.0003 5.25836C39.7709 5.25805 39.5467 5.32074 39.3573 5.43818C28.4456 11.0187 17.5395 16.6097 6.62775 22.1868C6.1819 22.3709 5.88268 22.7769 5.93574 23.2276C5.93762 34.4094 5.93574 45.5932 5.93574 56.7767C5.91682 56.9698 5.96356 57.1635 6.06965 57.3318C6.17575 57.5001 6.33612 57.6348 6.52916 57.7178C9.44101 59.2162 12.3566 60.7041 15.2704 62.1974C16.9118 62.9991 18.9273 63.4755 20.7358 62.8612C22.3318 62.3418 23.4505 60.8639 23.42 59.3262C23.4351 48.2096 23.4125 37.0914 23.4313 25.9766C23.3914 25.4831 23.9073 25.0753 24.436 25.1218C25.8351 25.1132 27.2361 25.1047 28.6352 25.1252C29.2192 25.1132 29.6211 25.6446 29.5489 26.1418C29.5432 37.3287 29.564 48.5159 29.5395 59.7029C29.5432 62.6843 28.1934 65.9284 25.1544 67.3872C21.4105 69.1472 16.7831 68.774 13.0844 67.0864C9.88247 65.6361 6.82682 63.9246 3.68168 62.3709C1.49607 61.3443 -0.0151148 59.1991 0.000270242 56.9508V23.0538C-0.0226503 20.8485 1.41443 18.7238 3.5451 17.683C14.4948 12.0755 25.4427 6.46362 36.3905 0.853487Z" fill="#8CC84B"/>
<path d="M45.943 24.3339C50.7186 24.055 55.8312 24.1687 60.1286 26.3036C63.4559 27.9396 65.3005 31.3732 65.3592 34.7276C65.2663 35.1801 64.7451 35.4297 64.2691 35.3986C62.8835 35.3969 61.4976 35.4157 60.112 35.3901C59.5242 35.4106 59.1826 34.9188 59.1088 34.4473C58.7107 32.8423 57.7461 31.2527 56.0814 30.4786C53.5259 29.3175 50.5629 29.3759 47.7763 29.4002C45.7421 29.4982 43.5546 29.658 41.8311 30.7436C40.508 31.5658 40.1061 33.2258 40.5784 34.5627C41.0236 35.5226 42.2446 35.8323 43.2437 36.1178C48.999 37.4837 55.0977 37.3478 60.7431 39.1454C63.0803 39.8782 65.3667 41.3028 66.1668 43.5235C67.2132 46.4998 66.7545 50.0573 64.421 52.4467C62.5287 54.413 59.7726 55.4831 57.0237 56.0644C53.3667 56.8043 49.5717 56.8231 45.8579 56.4946C42.3658 56.1333 38.7318 55.3008 36.036 53.1416C33.7308 51.3252 32.6048 48.4951 32.7166 45.7635C32.7433 45.3023 33.2494 44.9806 33.7364 45.0185C35.1318 45.0082 36.5271 45.0048 37.9224 45.0202C38.4797 44.984 38.8929 45.4211 38.9215 45.8977C39.1789 47.4269 39.8122 49.0319 41.2817 49.9385C44.1175 51.5988 47.6759 51.4851 50.923 51.5315C53.6132 51.4233 56.6331 51.3905 58.8284 49.777C59.9867 48.8567 60.3299 47.3169 60.0168 45.9923C59.6777 44.874 58.3885 44.3529 57.2814 44.0121C51.6 42.3812 45.4331 42.973 39.8066 41.1287C37.5224 40.3962 35.3135 39.0112 34.436 36.8817C33.2115 33.8677 33.7725 30.1398 36.3506 27.8311C38.8643 25.5346 42.493 24.6502 45.943 24.3337V24.3339Z" fill="#8CC84B"/>
</svg>
