<svg width="86" height="80" viewBox="0 0 86 80" fill="none" xmlns="http://www.w3.org/2000/svg">
<path d="M43 47.0531C47.117 47.0531 50.4546 43.8953 50.4546 40.0001C50.4546 36.1048 47.117 32.9471 43 32.9471C38.883 32.9471 35.5455 36.1048 35.5455 40.0001C35.5455 43.8953 38.883 47.0531 43 47.0531Z" fill="#61DAFB"/>
<path d="M43 54.4501C65.0914 54.4501 83 47.9806 83 40C83 32.0195 65.0914 25.55 43 25.55C20.9086 25.55 3 32.0195 3 40C3 47.9806 20.9086 54.4501 43 54.4501Z" stroke="#61DAFB" stroke-width="5"/>
<path d="M29.7734 47.225C40.8191 65.3262 55.6951 76.7653 62.9999 72.775C70.3048 68.7847 67.2722 50.8761 56.2265 32.775C45.1808 14.6739 30.3048 3.23478 22.9999 7.22504C15.6951 11.2153 18.7277 29.1239 29.7734 47.225Z" stroke="#61DAFB" stroke-width="5"/>
<path d="M29.7734 32.775C18.7277 50.8761 15.6952 68.7847 23 72.775C30.3048 76.7652 45.1809 65.3261 56.2266 47.225C67.2723 29.1239 70.3048 11.2153 63 7.225C55.6952 3.23474 40.8191 14.6739 29.7734 32.775Z" stroke="#61DAFB" stroke-width="5"/>
</svg>
