<svg width="80" height="60" viewBox="0 0 80 60" fill="none" xmlns="http://www.w3.org/2000/svg">
<path d="M40 0C29.333 0 22.6665 6.66681 19.9995 19.9992C24 13.3324 28.6668 10.8332 33.9998 12.4993C37.0429 13.4499 39.2177 16.2105 41.6256 19.2649C45.5471 24.2407 50.0858 29.9994 60.0005 29.9994C70.6665 29.9994 77.334 23.3326 80 9.99896C76.0005 16.6658 71.3338 19.1661 65.9998 17.5C62.9576 16.5494 60.7828 13.7889 58.3749 10.7344C54.4534 5.75872 49.9137 0 40 0ZM19.9995 29.9994C9.3335 29.9994 2.666 36.6662 0 49.9998C3.9995 43.333 8.66625 40.8326 14.0003 42.4999C17.0424 43.4518 19.2172 46.2111 21.6251 49.2643C25.5466 54.24 30.0863 60 40 60C50.667 60 57.3335 53.3332 60.0005 39.9996C56 46.6664 51.3333 49.1668 46.0003 47.4994C42.9571 46.5501 40.7823 43.7883 38.3744 40.7351C34.4529 35.7593 29.9142 29.9994 19.9995 29.9994Z" fill="#06B6D4"/>
</svg>
