<svg width="80" height="80" viewBox="0 0 80 80" fill="none" xmlns="http://www.w3.org/2000/svg">
<path d="M0 0H80V80H0V0Z" fill="#017ACB"/>
<path d="M38.4125 29.625H42.25V36.25H31.875V65.725L31.6 65.8C31.225 65.9 26.2875 65.9 25.225 65.7875L24.375 65.7125V36.25H14V29.625L17.2875 29.5875C19.0875 29.5625 23.7125 29.5625 27.5625 29.5875C31.4125 29.6125 36.2875 29.625 38.4125 29.625ZM67.7001 62.6C66.1751 64.2125 64.5376 65.1125 61.8126 65.85C60.6251 66.175 60.4251 66.1875 57.7501 66.175C55.0751 66.1625 54.8626 66.1625 53.5626 65.825C50.2001 64.9625 47.4876 63.275 45.6376 60.8875C45.1126 60.2125 44.25 58.8125 44.25 58.6375C44.25 58.5875 44.375 58.475 44.5375 58.4C44.7001 58.325 45.0376 58.1125 45.3126 57.95C45.5876 57.7875 46.0876 57.4875 46.4251 57.3125C46.7626 57.1375 47.7376 56.5625 48.5876 56.05C49.4376 55.5375 50.2126 55.125 50.3001 55.125C50.3876 55.125 50.5501 55.3 50.6751 55.5125C51.4251 56.775 53.1751 58.3875 54.4126 58.9375C55.1751 59.2625 56.8626 59.625 57.6751 59.625C58.4251 59.625 59.8001 59.3 60.5376 58.9625C61.3251 58.6 61.7251 58.2375 62.2001 57.5125C62.5251 57 62.5626 56.8625 62.5501 55.8875C62.5501 54.9875 62.5001 54.7375 62.2501 54.325C61.5501 53.175 60.6001 52.575 56.7501 50.875C52.7751 49.1125 50.9876 48.0625 49.5376 46.65C48.4626 45.6 48.2501 45.3125 47.5751 44C46.7001 42.3125 46.5876 41.7625 46.5751 39.25C46.5626 37.4875 46.6001 36.9125 46.7876 36.3125C47.0501 35.4125 47.9001 33.675 48.2876 33.2375C49.0876 32.3 49.3751 32.0125 49.9376 31.55C51.6376 30.15 54.2876 29.225 56.8251 29.1375C57.1126 29.1375 58.0626 29.1875 58.9501 29.25C61.5001 29.4625 63.2376 30.0875 64.9126 31.425C66.1751 32.425 68.0876 34.775 67.9001 35.0875C67.7751 35.275 62.7876 38.6 62.4626 38.7C62.2626 38.7625 62.1251 38.6875 61.8501 38.3625C60.1501 36.325 59.4626 35.8875 57.8126 35.7875C56.6376 35.7125 56.0126 35.85 55.2251 36.375C54.4001 36.925 54.0001 37.7625 54.0001 38.925C54.0126 40.625 54.6626 41.425 57.0626 42.6125C58.6126 43.375 59.9376 44 60.0376 44C60.1876 44 63.4001 45.6 64.2376 46.1C68.1376 48.3875 69.7251 50.7375 70.1376 54.7875C70.4376 57.8375 69.5751 60.625 67.7001 62.6Z" fill="white"/>
</svg>
